Coordinates
version=1
nRows=15
nColumns=42
inDegrees=yes

Units are S.I. units (second, meters, Newtons, ...)
If the header above contains a line with 'inDegrees', this indicates whether rotational values are in degrees (yes) or radians (no).

endheader
time	pelvis_tilt	pelvis_list	pelvis_rotation	pelvis_tx	pelvis_ty	pelvis_tz	hip_flexion_r	hip_adduction_r	hip_rotation_r	knee_angle_r	knee_adduction_r	knee_angle_r_beta	ankle_angle_r	subtalar_angle_r	mtp_angle_r	hip_flexion_l	hip_adduction_l	hip_rotation_l	knee_angle_l	knee_adduction_l	knee_angle_l_beta	ankle_angle_l	subtalar_angle_l	mtp_angle_l	lumbar_extension	lumbar_bending	lumbar_rotation	arm_flex_r	arm_add_r	arm_rot_r	elbow_flex_r	pro_sup_r	wrist_flex_r	wrist_dev_r	arm_flex_l	arm_add_l	arm_rot_l	elbow_flex_l	pro_sup_l	wrist_flex_l	wrist_dev_l
      0.40000000	     15.36067452	     -3.03016739	      1.87685339	     -2.13562197	      0.90636799	      0.07236522	    -27.60286588	      2.32307144	    -24.02166944	      9.79269524	      7.32520917	      0.17091477	     16.46910805	     37.70455641	     -9.54933512	     16.59044923	     -2.58658235	    -15.85486162	     19.33143978	     -8.17354458	      0.33739727	     14.21329437	     14.82922626	     -9.54933512	    -34.37303942	      2.09814642	      0.88638853	     21.57274207	    -23.65966938	      8.91815420	     63.82752641	     90.00000001	      0.00000000	      0.00000000	     -4.60840927	     -7.42376645	      2.53681727	     33.92703782	     90.00000001	      0.00000000	      0.00000000
      0.41000000	     15.28915244	     -3.17859969	      1.93501658	     -2.12705263	      0.90522457	      0.07121556	    -28.02626346	      2.33404511	    -23.75824211	     10.02223372	      7.30962234	      0.17492098	     16.44538126	     37.70754652	     -9.54204662	     16.64558930	     -2.56535392	    -15.99847663	     19.42939274	     -8.28774889	      0.33910688	     14.28426267	     14.78784157	     -9.54204662	    -34.26249025	      2.27118882	      0.82769500	     21.88217848	    -23.73321700	      8.86996012	     63.96869602	     90.00000001	      0.00000000	      0.00000000	     -4.83934376	     -7.44153482	      2.55119133	     33.76238926	     90.00000001	      0.00000000	      0.00000000
      0.42000000	     15.19816798	     -3.42173036	      1.84329873	     -2.11829804	      0.90396045	      0.07036400	    -28.37154453	      2.40193371	    -23.34110388	     10.33698892	      7.17293175	      0.18041449	     16.56848063	     37.74712348	     -9.46571984	     16.91899824	     -2.81346966	    -16.78324008	     20.45464477	     -8.52501223	      0.35700090	     15.00520129	     15.03804644	     -9.46571984	    -34.11689512	      2.45792800	      1.00325426	     22.02098265	    -23.93115415	      8.93243935	     64.20826062	     90.00000001	      0.00000000	      0.00000000	     -4.99194957	     -7.45804880	      3.02505921	     33.14320431	     90.00000001	      0.00000000	      0.00000000
      0.43000000	     15.19629409	     -3.43928041	      1.78542661	     -2.10951590	      0.90308860	      0.06914970	    -28.81829284	      2.21123484	    -23.04777975	     10.69309115	      7.06876540	      0.18662965	     16.54448429	     37.75535891	     -9.45418691	     16.73192968	     -2.62578692	    -16.70397550	     21.13555610	     -8.66794331	      0.36888504	     15.20980417	     14.83189338	     -9.45418691	    -34.10746462	      2.44855058	      0.95486009	     22.21288323	    -23.95359654	      8.83524804	     64.27445145	     90.00000001	      0.00000000	      0.00000000	     -5.20515848	     -7.44929450	      3.22576604	     32.62804827	     90.00000001	      0.00000000	      0.00000000
      0.44000000	     14.99601708	     -3.59135930	      1.70587223	     -2.10055643	      0.90178059	      0.06813373	    -28.95344764	      2.15250204	    -23.04306473	     11.30256715	      6.85369559	      0.19726701	     16.77439812	     37.90819889	     -9.36970967	     16.90927097	     -2.69496273	    -16.69133196	     22.56247119	     -8.66706507	      0.39378941	     15.93230505	     13.46690829	     -9.36970967	    -33.83962533	      2.52878892	      1.15209343	     22.08604126	    -24.02812450	      8.54913937	     64.38083855	     90.00000001	      0.00000000	      0.00000000	     -5.24982672	     -7.56251415	      4.29825741	     31.75022153	     90.00000001	      0.00000000	      0.00000000
      0.45000000	     14.83865818	     -3.63990267	      1.60198323	     -2.09157125	      0.90071643	      0.06700082	    -29.14307931	      1.97154080	    -22.96485039	     11.89453232	      6.66379804	      0.20759875	     16.91036123	     38.00009474	     -9.27839458	     16.77882119	     -2.56058923	    -16.18216392	     23.71666239	     -8.54552794	      0.41393385	     16.24029804	     11.89461296	     -9.27839458	    -33.64953159	      2.51109828	      1.25782067	     21.98322956	    -24.01606586	      8.27907005	     64.40224480	     90.00000001	      0.00000000	      0.00000000	     -5.27861985	     -7.67726202	      4.72514351	     31.32689174	     90.00000001	      0.00000000	      0.00000000
      0.46000000	     14.65631727	     -3.63096414	      1.39452652	     -2.08236543	      0.89970537	      0.06586472	    -29.29222283	      1.66682745	    -22.85823633	     12.52870396	      6.46817729	      0.21866714	     16.94162331	     38.04080346	     -9.24958557	     16.63156083	     -2.39718808	    -16.14501698	     24.93414323	     -8.56354710	      0.43518290	     16.74790320	     10.77290334	     -9.24958557	    -33.41642056	      2.39551785	      1.42839669	     21.80350108	    -23.96874910	      7.98770136	     64.30859268	     90.00000001	      0.00000000	      0.00000000	     -5.20841401	     -7.74132214	      4.62597340	     31.19912928	     90.00000001	      0.00000000	      0.00000000
      0.47000000	     14.44362788	     -3.63430191	      1.20466872	     -2.07313365	      0.89875142	      0.06465216	    -29.38089367	      1.40023924	    -22.75133616	     13.17742234	      6.21677508	      0.22998941	     16.98979822	     38.08733898	     -9.22715034	     16.42750873	     -2.26152912	    -16.01249714	     26.04132186	     -8.45057694	      0.45450681	     17.12136224	      9.69176969	     -9.22715034	    -33.16798615	      2.31201589	      1.59692269	     21.55642860	    -23.93341326	      7.64439800	     64.19331410	     90.00000001	      0.00000000	      0.00000000	     -5.07598964	     -7.86794111	      4.26807504	     31.41794034	     90.00000001	      0.00000000	      0.00000000
      0.48000000	     14.22423250	     -3.61031042	      1.00627325	     -2.06382075	      0.89788731	      0.06344880	    -29.44077930	      1.12546043	    -22.67235294	     13.86424219	      5.91478322	      0.24197667	     17.02790586	     38.13145302	     -9.20405105	     16.18737637	     -2.10728256	    -15.93592173	     27.05145667	     -8.33756028	      0.47213699	     17.41514556	      8.49954128	     -9.20405105	    -32.91859690	      2.18881199	      1.77568110	     21.21970851	    -23.83776631	      7.26959849	     64.02012007	     90.00000001	      0.00000000	      0.00000000	     -4.85668844	     -7.99744461	      3.63789722	     31.83712117	     90.00000001	      0.00000000	      0.00000000
      0.49000000	     14.00347708	     -3.48548185	      0.90307437	     -2.05455266	      0.89718131	      0.06191709	    -29.47035191	      0.77036480	    -22.77185189	     14.63465328	      5.60954434	      0.25542288	     17.21123240	     38.22301999	     -9.12117193	     15.81226170	     -1.74830993	    -15.29117820	     27.71883561	     -8.03181530	      0.48378495	     17.16921597	      6.30219536	     -9.12117193	    -32.68500302	      2.00092882	      1.78459936	     20.86099178	    -23.70556716	      6.90880548	     63.76752410	     90.00000001	      0.00000000	      0.00000000	     -4.46711252	     -7.94131099	      1.94566099	     32.10168266	     90.00000001	      0.00000000	      0.00000000
      0.50000000	     13.76115002	     -3.44278277	      0.86615701	     -2.04509110	      0.89655766	      0.06044455	    -29.55962643	      0.62799888	    -22.43474161	     15.04885371	      5.30653495	      0.26265205	     17.04677459	     38.21423634	     -9.11768437	     15.50465769	     -1.53265316	    -15.25497670	     28.17147828	     -8.08024206	      0.49168505	     17.18667095	      6.20786394	     -9.11768437	    -32.40373682	      1.90466144	      1.80596827	     20.35513538	    -23.67714343	      6.88870628	     63.48079690	     90.00000001	      0.00000000	      0.00000000	     -4.10924582	     -8.20373474	      1.79905548	     32.34405317	     90.00000001	      0.00000000	      0.00000000
      0.51000000	     13.62857417	     -3.30492277	      0.47931718	     -2.03555871	      0.89605671	      0.05947983	    -29.52216744	      0.06874139	    -22.49602825	     16.21140335	      5.04285531	      0.28294236	     16.69864796	     38.09857390	     -9.09975771	     15.30878910	     -1.55401625	    -16.18851672	     29.25663375	     -8.02139952	      0.51062459	     17.41246715	      5.33796381	     -9.09975771	    -32.26202281	      1.53759491	      2.07939000	     19.92552706	    -23.41138067	      6.30553279	     63.02327486	     90.00000001	      0.00000000	      0.00000000	     -3.85649577	     -8.34670218	      1.15861240	     32.93074425	     90.00000001	      0.00000000	      0.00000000
      0.52000000	     13.49876281	     -3.17051667	      0.29932444	     -2.02599387	      0.89573319	      0.05813888	    -29.52799326	     -0.31079243	    -22.44761332	     17.14212639	      4.68952308	      0.29918655	     16.41033355	     38.07768463	     -9.08425440	     15.05735293	     -1.46601005	    -16.66507731	     29.96837109	     -8.02218644	      0.52304675	     17.28015861	      5.00277390	     -9.08425440	    -32.12713586	      1.26138341	      2.16772104	     19.38159560	    -23.23578131	      6.00101088	     62.58673383	     90.00000001	      0.00000000	      0.00000000	     -3.50859240	     -8.49168591	      0.67196584	     33.12812963	     90.00000001	      0.00000000	      0.00000000
      0.53000000	     13.43523399	     -2.90661864	      0.10992434	     -2.01632246	      0.89564286	      0.05667442	    -29.51344292	     -0.87011349	    -22.66200820	     18.30386926	      4.26769223	      0.31946278	     16.09826040	     38.16970735	     -9.03076830	     14.72487197	     -1.21929088	    -17.21017151	     30.52619825	     -8.11872548	      0.53278267	     16.96974650	      4.73777326	     -9.03076830	    -32.06471032	      0.84025204	      2.18551685	     18.77520298	    -23.00963899	      5.65310998	     62.12223635	     90.00000001	      0.00000000	      0.00000000	     -3.08341023	     -8.53035711	     -0.19952645	     33.07288390	     90.00000001	      0.00000000	      0.00000000
      0.54000000	     13.39868194	     -2.78912915	     -0.04683764	     -2.00666386	      0.89566105	      0.05536988	    -29.49535264	     -1.23932520	    -22.51551254	     19.42294634	      3.91921589	      0.33899436	     15.41474576	     38.01887334	     -9.01484056	     14.43371412	     -1.25527262	    -17.54526539	     31.24756727	     -7.97340293	      0.54537293	     16.71565733	      4.51996468	     -9.01484056	    -32.03705732	      0.55716407	      2.23055362	     18.17542068	    -22.82930075	      5.53106378	     61.55326140	     90.00000001	      0.00000000	      0.00000000	     -2.71058987	     -8.70410874	     -0.32683039	     33.01576407	     90.00000001	      0.00000000	      0.00000000
